<svg xmlns="http://www.w3.org/2000/svg" viewBox="0 0 566.15 273.89"><defs><style>.cls-1{fill:#3c3c3c;}.cls-2{fill:#ee7f00;}.cls-3{fill:#3c3c3b;}</style></defs><g id="jambit"><path class="cls-1" d="M262.6,142.19c1.1,1.6,1.6,4.2,1.6,7.9v37.6H282v-38.1c0-15.1-7.8-22.7-23.3-22.7a22.15,22.15,0,0,0-4.5.5,18.21,18.21,0,0,0-4.5,1,25.25,25.25,0,0,0-4.7,2.3,54,54,0,0,0-5.5,4.2A17.11,17.11,0,0,0,232,129a31.91,31.91,0,0,0-11.8-2.1,25.79,25.79,0,0,0-8,1.3,26.38,26.38,0,0,0-7.6,3.6v-3.4H187v59.3h17.6v-40.8c4.8-4.7,9.4-7,13.7-7,2.6,0,4.5.8,5.7,2.3s1.6,4.2,1.6,7.9v37.6h17.6v-40.8c4.8-4.7,9.5-7,13.8-7C259.6,139.89,261.5,140.69,262.6,142.19Z"/><path class="cls-1" d="M328,126.89a28.92,28.92,0,0,0-15.9,4.5v-25.6H294.5v81.9h17.6v-1.9a33.16,33.16,0,0,0,7.1,2.5,38,38,0,0,0,8,.8,33.22,33.22,0,0,0,12.3-2.3,16,16,0,0,0,2.7-1.2,29.77,29.77,0,0,0,7.1-5.1,31.43,31.43,0,0,0,6.5-10,35.42,35.42,0,0,0,2.4-13,38.1,38.1,0,0,0-2-12.5,27.79,27.79,0,0,0-5.9-9.5,27.23,27.23,0,0,0-9.5-6.3A34.35,34.35,0,0,0,328,126.89Zm-15.9,20.3c4.8-5.2,9.7-7.8,14.9-7.8a11.18,11.18,0,0,1,9.5,4.6c2.3,3,3.5,7.5,3.5,13.5,0,6.3-1.2,11.1-3.6,14.3a11.53,11.53,0,0,1-9.9,4.9,20.82,20.82,0,0,1-7.5-1.4,21.77,21.77,0,0,1-6.9-3.9Z"/><path class="cls-2" d="M424,140.69h10.6v-12.3H424v-14.7H406v14.7h-8v12.3h8v29.2a48.56,48.56,0,0,0,.7,8.3,10.89,10.89,0,0,0,2.5,6.1,8,8,0,0,0,1.3,1.3,13.56,13.56,0,0,0,4.3,2.3,33.64,33.64,0,0,0,10,1.2,51.05,51.05,0,0,0,5.2-.3c1.8-.2,3.8-.6,6.1-1v-12c-1.8.4-3.4.5-4.9.7a29,29,0,0,1-3.9.2,3,3,0,0,1-1.4-.2,1.67,1.67,0,0,1-1.1-.9,4.73,4.73,0,0,1-.6-1.9,16.73,16.73,0,0,1-.2-3.4Z"/><path class="cls-2" d="M369.44,128.39v12.1h18v-12.1Z"/><path class="cls-2" d="M387.46,142.49h-18v45.2h18Z"/><path class="cls-1" d="M131.3,145.89a7.83,7.83,0,0,1,4.3-5.2,23.47,23.47,0,0,1,8.4-1.3,29.53,29.53,0,0,1,6.8.7,8.89,8.89,0,0,1,3.9,1.9,5.64,5.64,0,0,1,1.7,3.1,17.27,17.27,0,0,1,.5,4.2h-2.8c-28.5,0-42.8,7.1-42.8,21.5a13.27,13.27,0,0,0,2,7.4,18.46,18.46,0,0,0,5.4,5.8,22.61,22.61,0,0,0,2.6,1.6,33.73,33.73,0,0,0,5.4,2.2,35.09,35.09,0,0,0,10,1.3,47.28,47.28,0,0,0,10.9-1.2,38.28,38.28,0,0,0,7-2.3c.8-.4,1.6-.7,2.3-1.1v3.2h17.6v-37.6a28.76,28.76,0,0,0-2-11.4,16.45,16.45,0,0,0-6-7,24.22,24.22,0,0,0-9.3-3.7,69.23,69.23,0,0,0-12.5-1.1c-18.8,0-29.3,6.4-31.4,19Zm20.4,15.4h5.2v9a19.37,19.37,0,0,1-7.3,4.8,27.48,27.48,0,0,1-9.5,1.6c-3.4,0-5.9-.5-7.9-1.7a5.36,5.36,0,0,1-2.9-4.7C129.3,164.29,136.8,161.29,151.7,161.29Z"/><path class="cls-1" d="M100,140.49v-12.2H80.5v12.2Z"/><path class="cls-1" d="M74.7,202.79a25.76,25.76,0,0,1-5.3.5c-1.9,0-3.7-.1-5.5-.2H61.4v8.7c3,.2,6.4.3,10.4.3a82.74,82.74,0,0,0,11.7-.8,27.51,27.51,0,0,0,7.5-2.4c.5-.2,1-.5,1.4-.7a13.48,13.48,0,0,0,5.6-6.4c1.4-2.7,2-6.2,2-10.5v-48.8H80.5v48.4A33.21,33.21,0,0,1,80,197a8.42,8.42,0,0,1-1.8,3.8A6,6,0,0,1,74.7,202.79Z"/></g><g id="where_innovation_works" data-name="where innovation works"><path class="cls-3" d="M130.9,198.19,127,212.29h-1.78L121.79,200l-3.39,12.26h-1.8l-3.9-14.1h2l2.8,11.5,3.18-11.5h2.26l3.17,11.5,2.84-11.5Z"/><path class="cls-3" d="M375.7,198.19l-3.93,14.1H370L366.58,200l-3.38,12.26h-1.8l-3.9-14.1h2l2.8,11.5,3.18-11.5h2.26l3.17,11.5,2.83-11.5Z"/><path class="cls-3" d="M145.1,212.29h-1.9v-6.64h-7.41v6.64H133.9v-14.1h1.89V204h7.41v-5.77h1.9Z"/><path class="cls-3" d="M160.1,212.29H149.5v-14.1h10.28v1.68h-8.4v4.28h7.86v1.69h-7.86v4.78h8.72Z"/><path class="cls-3" d="M190.2,212.29H179.6v-14.1h10.27v1.68h-8.39v4.28h7.85v1.69h-7.85v4.78h8.72Z"/><path class="cls-3" d="M175.7,212.29h-2l-1.31-3.77a4.12,4.12,0,0,0-.47-.91,3.38,3.38,0,0,0-1.58-1.17,3,3,0,0,0-1-.17h-3.43v6H164v-14.1h6.21l1.08,0a7.14,7.14,0,0,1,1,.12,5.19,5.19,0,0,1,.87.28,3,3,0,0,1,.79.51,3.37,3.37,0,0,1,1,1.35,4.35,4.35,0,0,1,.33,1.66,4.2,4.2,0,0,1-.22,1.35,3.54,3.54,0,0,1-.62,1.11,3.43,3.43,0,0,1-1,.81,4.76,4.76,0,0,1-1.31.5,3.8,3.8,0,0,1,2.25,2.55Zm-9.84-7.71H170a4.5,4.5,0,0,0,2.51-.54,2.18,2.18,0,0,0,.78-1.91c0-1.59-1-2.38-3-2.38h-4.43Z"/><path class="cls-3" d="M407.2,212.29h-2l-1.31-3.77a4.12,4.12,0,0,0-.47-.91,3.38,3.38,0,0,0-1.58-1.17,2.93,2.93,0,0,0-1-.17h-3.43v6H395.5v-14.1h6.21l1.08,0a7.14,7.14,0,0,1,1,.12,5.19,5.19,0,0,1,.87.28,3,3,0,0,1,.79.51,3.28,3.28,0,0,1,1,1.35,4.35,4.35,0,0,1,.33,1.66,3.94,3.94,0,0,1-.22,1.35,3.54,3.54,0,0,1-.62,1.11,3.19,3.19,0,0,1-1,.81,4.76,4.76,0,0,1-1.31.5,3.8,3.8,0,0,1,2.25,2.55Zm-9.84-7.71h4.16A4.48,4.48,0,0,0,404,204a2.18,2.18,0,0,0,.78-1.91c0-1.59-1-2.38-3-2.38h-4.43Z"/><path class="cls-3" d="M210.53,212.29h-1.86v-14.1h1.86Z"/><path class="cls-3" d="M226.38,212.29h-1.91l-7.41-11.13v11.13H215.3v-14.1h1.92l7.39,11.14V198.19h1.77Z"/><path class="cls-3" d="M241.88,212.29H240l-7.41-11.13v11.13H230.8v-14.1h1.92l7.39,11.14V198.19h1.77Z"/><path class="cls-3" d="M339.88,212.29H338l-7.41-11.13v11.13H328.8v-14.1h1.92l7.39,11.14V198.19h1.77Z"/><path class="cls-3" d="M252.46,198a6.88,6.88,0,0,1,2.7.53,6,6,0,0,1,2.13,1.48,6.67,6.67,0,0,1,1.4,2.3,8.38,8.38,0,0,1,.51,3,8.75,8.75,0,0,1-.49,3,6.91,6.91,0,0,1-1.4,2.31,6.1,6.1,0,0,1-2.14,1.5,6.82,6.82,0,0,1-2.71.53,7,7,0,0,1-2.73-.52,6.2,6.2,0,0,1-2.14-1.49,6.85,6.85,0,0,1-1.39-2.31,8.63,8.63,0,0,1-.5-3,8.72,8.72,0,0,1,.5-3,6.62,6.62,0,0,1,1.42-2.3,6.07,6.07,0,0,1,2.13-1.47A6.82,6.82,0,0,1,252.46,198Zm0,13a4.77,4.77,0,0,0,1.94-.39,4.37,4.37,0,0,0,1.54-1.12,5.39,5.39,0,0,0,1-1.8,7.36,7.36,0,0,0,.36-2.39,7.2,7.2,0,0,0-.37-2.42,5.22,5.22,0,0,0-1-1.78,4.24,4.24,0,0,0-1.52-1.1,4.79,4.79,0,0,0-1.91-.38,4.84,4.84,0,0,0-1.94.39,4.37,4.37,0,0,0-1.54,1.11,5.17,5.17,0,0,0-1,1.79,7.06,7.06,0,0,0-.37,2.39,7.36,7.36,0,0,0,.36,2.39,5,5,0,0,0,1,1.8,4.33,4.33,0,0,0,1.53,1.12A4.69,4.69,0,0,0,252.44,211Z"/><path class="cls-3" d="M318.26,198a6.88,6.88,0,0,1,2.7.53A6.18,6.18,0,0,1,323.1,200a7,7,0,0,1,1.4,2.3,8.6,8.6,0,0,1,.5,3,8.51,8.51,0,0,1-.49,3,6.91,6.91,0,0,1-1.4,2.31,6.15,6.15,0,0,1-2.13,1.5,7.33,7.33,0,0,1-5.45,0,6.07,6.07,0,0,1-2.13-1.49,6.72,6.72,0,0,1-1.4-2.31,8.63,8.63,0,0,1-.5-3,8.49,8.49,0,0,1,.51-3,6.46,6.46,0,0,1,1.41-2.3,6.07,6.07,0,0,1,2.13-1.47A6.82,6.82,0,0,1,318.26,198Zm0,13a4.77,4.77,0,0,0,1.94-.39,4.28,4.28,0,0,0,1.54-1.12,5.22,5.22,0,0,0,1-1.8,7.36,7.36,0,0,0,.36-2.39,7.2,7.2,0,0,0-.37-2.42,5.22,5.22,0,0,0-1-1.78,4.16,4.16,0,0,0-1.52-1.1,4.79,4.79,0,0,0-1.91-.38,4.84,4.84,0,0,0-1.94.39,4.37,4.37,0,0,0-1.54,1.11,5.34,5.34,0,0,0-1,1.79,7.06,7.06,0,0,0-.37,2.39,7.36,7.36,0,0,0,.36,2.39,5.06,5.06,0,0,0,1,1.8,4.21,4.21,0,0,0,1.52,1.12A4.72,4.72,0,0,0,318.24,211Z"/><path class="cls-3" d="M385,198a6.88,6.88,0,0,1,2.7.53,6.14,6.14,0,0,1,2.13,1.48,6.67,6.67,0,0,1,1.4,2.3,8.38,8.38,0,0,1,.51,3,8.51,8.51,0,0,1-.5,3,6.73,6.73,0,0,1-1.39,2.31,6.1,6.1,0,0,1-2.14,1.5,6.82,6.82,0,0,1-2.71.53,7,7,0,0,1-2.73-.52,6.2,6.2,0,0,1-2.14-1.49,6.85,6.85,0,0,1-1.39-2.31,8.63,8.63,0,0,1-.5-3,8.72,8.72,0,0,1,.5-3,6.62,6.62,0,0,1,1.42-2.3,6.07,6.07,0,0,1,2.13-1.47A6.82,6.82,0,0,1,385,198Zm0,13a4.77,4.77,0,0,0,1.94-.39,4.37,4.37,0,0,0,1.54-1.12,5.39,5.39,0,0,0,1-1.8,7.36,7.36,0,0,0,.36-2.39,7.2,7.2,0,0,0-.37-2.42,5.22,5.22,0,0,0-1-1.78,4.24,4.24,0,0,0-1.52-1.1,5,5,0,0,0-3.85,0,4.37,4.37,0,0,0-1.54,1.11,5.17,5.17,0,0,0-1,1.79,7.06,7.06,0,0,0-.37,2.39,7.36,7.36,0,0,0,.36,2.39,5,5,0,0,0,1,1.8A4.33,4.33,0,0,0,383,210.6,4.69,4.69,0,0,0,384.94,211Z"/><path class="cls-3" d="M274.51,198.19,269,212.28h-1.93l-5.49-14.09h2l4.45,12.08,4.46-12.08Z"/><path class="cls-3" d="M289.2,212.29h-2.12L285.45,208h-5.92L278,212.29h-2l5.41-14.1h2Zm-4.3-5.78L282.41,200,280,206.51Z"/><path class="cls-3" d="M302.1,199.87h-4.69v12.42h-1.87V199.87H290.9v-1.68h11.2Z"/><path class="cls-3" d="M307.57,212.29H305.7v-14.1h1.87Z"/><path class="cls-3" d="M422.5,212.29h-2.45l-5-7-2.19,2.14v4.9H411v-14.1h1.86v7l6.87-7h2.5L416.34,204Z"/><path class="cls-3" d="M430.78,212.59a8.46,8.46,0,0,1-2.59-.35,5.17,5.17,0,0,1-1.85-1,4.1,4.1,0,0,1-1.12-1.52,5.09,5.09,0,0,1-.42-1.93h1.78a3.2,3.2,0,0,0,.43,1.39,3.09,3.09,0,0,0,.9,1,4,4,0,0,0,1.26.57,6.21,6.21,0,0,0,1.52.18,5.66,5.66,0,0,0,1.43-.17,3.64,3.64,0,0,0,1.09-.49,2.24,2.24,0,0,0,.72-.75,2,2,0,0,0,.26-1,2,2,0,0,0-.23-1,2.08,2.08,0,0,0-.76-.7,6.3,6.3,0,0,0-1.35-.54c-.56-.16-1.24-.33-2.05-.5a11.85,11.85,0,0,1-2-.61,5.82,5.82,0,0,1-1.41-.81,3,3,0,0,1-.81-1.06,3.6,3.6,0,0,1-.26-1.4,3.38,3.38,0,0,1,.36-1.56,3.79,3.79,0,0,1,1-1.24,4.87,4.87,0,0,1,1.57-.82,7,7,0,0,1,2-.29,7.66,7.66,0,0,1,2.15.29,5.09,5.09,0,0,1,1.68.84,4,4,0,0,1,1.11,1.33,4.33,4.33,0,0,1,.43,1.79h-1.81q-.27-2.55-3.48-2.55a4.21,4.21,0,0,0-2.41.58,1.81,1.81,0,0,0-.84,1.57,1.61,1.61,0,0,0,.16.76,1.4,1.4,0,0,0,.53.56,3.94,3.94,0,0,0,1,.44c.42.13.93.26,1.55.39s1.2.27,1.69.41.92.28,1.29.42a5.36,5.36,0,0,1,1,.5,4.36,4.36,0,0,1,.86.74,3.27,3.27,0,0,1,.59,1,3.42,3.42,0,0,1,.22,1.27,3.78,3.78,0,0,1-.39,1.72,4.3,4.3,0,0,1-1.09,1.35,5.18,5.18,0,0,1-1.65.87A6.68,6.68,0,0,1,430.78,212.59Z"/></g><g id="coffeeright"><path class="cls-2" d="M474,123a30.78,30.78,0,0,1-30.65-30.65,29.36,29.36,0,0,1,9-21.69,30.7,30.7,0,0,1,52.43,21.69A29.9,29.9,0,0,1,495.81,114,29.52,29.52,0,0,1,474,123Zm0-55.5a24,24,0,0,0-17.51,7.34l0,0a24.69,24.69,0,0,0,0,34.91,24.7,24.7,0,0,0,35.1,0,24.16,24.16,0,0,0,7.26-17.44A24.89,24.89,0,0,0,474,67.54Zm-19.6,5.25h0Z"/><path class="cls-1" d="M484.24,74.76c1.63,1.63-3.26,9.17-10.93,16.84s-15.21,12.57-16.84,10.94-.53-13,7.14-20.64S482.61,73.13,484.24,74.76Z"/><path class="cls-1" d="M463.56,109.92c-1.63-1.63,3.27-9.17,10.94-16.83s15.2-12.57,16.83-10.94.54,13-7.13,20.64S465.19,111.55,463.56,109.92Z"/></g></svg>