<svg xmlns="http://www.w3.org/2000/svg" height="800" width="1200" id="svg3598" version="1.1" xml:space="preserve" clip-rule="evenodd" fill-rule="evenodd" image-rendering="optimizeQuality" shape-rendering="geometricPrecision" text-rendering="geometricPrecision" viewBox="-10.28943 -17.113675 89.17506 102.68205"><defs id="defs3584"><style id="style3582" type="text/css">.fil1{fill:#000;fill-rule:nonzero}</style></defs><g id="Ebene_x0020_1"><g id="_63430936"><path id="_24868928" fill="#0033ba" fill-rule="nonzero" d="M68.5962 68.4546H0V15.0117h68.5962z"/><g id="g3594"><path class="fil1" id="_62230312" d="M60.9384.0217h7.6576v3.013h-4.3176v2.3629h4.3176v2.8513h-4.3176v5.2152h-3.34z"/><path class="fil1" id="_24855208" d="M8.4736 3.0354h-2.445v10.4284H2.6074V3.0354H0V.0214h8.4736z"/><path d="M56.05 5.2145c-.0771.233-.1385.3714-.3051.5489-.1651.1775-.2927.2438-.5093.3475-.2115.1013-.3408.1418-.5705.184h-1.3029v-3.26h1.3029c.4885.1227.481.125.7339.3059.2845.2033.3823.2903.5283.5492.1046.184.1469.3002.1834.5108.0564.3127.0397.5109-.0607.8137zM59.2887 3.32c-.1824-.719-.3583-1.1428-.835-1.7118-.3633-.4304-.6329-.6312-1.1205-.9147-.4305-.2514-.7001-.36-1.1811-.4895-.564-.155-.9033-.151-1.487-.1824-.5076-.029-.7963-.029-1.3029 0H49.858v13.4426h3.5042V9.0635c.5075 0 .7944.0099 1.3029 0 .6361-.0125.9961-.0092 1.6287-.0604.4885-.04.7199-.2191 1.1205-.4695.4629-.2878.6785-.5299 1.0187-.958.3333-.4171.4958-.6835.6923-1.1802.2556-.6451.2995-1.0582.3052-1.7508.0042-.5207-.0141-.8209-.1418-1.3245z" class="fil1" id="_63217712"/><path class="fil1" id="_62617536" d="M36.6207 13.4638v-8.351l2.8505 8.351h2.24l2.8522-8.351v8.351h3.2578V.0214h-4.521l-2.6481 8.2273L38.0049.0214h-4.4804v13.4424z"/><path d="M28.107.0214v8.7988c.0157.3068-.0282.4967-.1625.772-.1171.2398-.2257.3609-.4279.5302-.1826.1559-.306.227-.5292.3058-.2654.0922-.4354.1112-.7132.0814-.2133-.0223-.3343-.0581-.5309-.1418-.252-.112-.4062-.1808-.5896-.3881-.1683-.1874-.2189-.3334-.3061-.5706-.0804-.2198-.0995-.356-.1211-.589V.0215h-3.3814v8.2273h-.0207l.0207.5715c.0216.2713.04.4229.0823.6909.0647.4253.0912.671.2231 1.0805.1451.4505.2455.7067.5083 1.099.3242.4802.5922.6984 1.06 1.0392.5365.3915.8882.5732 1.5277.753.6294.1785 1.0159.1785 1.6694.1627.4961-.0108.7829-.019 1.2632-.142.525-.1316.812-.2628 1.2822-.5282.4751-.2704.7415-.4446 1.1212-.836.4232-.4361.6105-.7465.8553-1.3046.2247-.5108.2828-.8301.3665-1.3842.0374-.2448.0472-.385.0604-.6303V.0214H28.107z" class="fil1" id="_62618200"/><path d="M13.0758 3.0666h1.9962c.336.0938.5217.2067.7737.4488.1843.1775.2789.2986.3865.53.1345.2854.142.4777.1634.7929.0167.2396.0299.379-.0207.6111-.0341.1659-.0663.2581-.1427.4081-.1069.2116-.1864.3317-.3655.4902-.2582.223-.4571.3169-.7947.3648v.0207h-1.9962V3.0666zm3.5845 5.784v-.0645c.2048-.0374.4096-.0962.6517-.1982.4347-.1834.662-.3442 1.0194-.6545.3914-.336.6004-.564.8544-1.016.3002-.5357.3632-.9015.4485-1.5085.0856-.613.0814-.9763-.0207-1.5867-.0895-.545-.1883-.851-.4278-1.3445-.2697-.5605-.4712-.8715-.9165-1.3036-.521-.5085-.894-.7631-1.5883-.9778-.6013-.1876-.9987-.205-1.609-.1443H9.7358v13.4424h3.34V9.0955l2.7699 4.3989h4.073l-3.2584-4.6437z" class="fil1" id="_62618152"/></g></g></g></svg>